<svg id="Layer_1" data-name="Layer 1" xmlns="http://www.w3.org/2000/svg" viewBox="0 0 626 626"><defs><style>.cls-1{fill:#fff;}</style></defs><title>facebook</title><path class="cls-1" d="M0,521V106c1.84-8.06,3-16.37,5.65-24.15C19.18,42.35,45.87,16.22,86.16,4.48,92.66,2.59,99.38,1.48,106,0H520c7,1.57,14,2.71,20.82,4.78q61.62,18.76,80.44,80.5c2,6.46,3.18,13.14,4.74,19.72V521c-1.57,6.58-2.79,13.27-4.76,19.73q-18.75,61.68-80.51,80.51c-6.47,2-13.15,3.19-19.73,4.76H105a8.74,8.74,0,0,0-2.22-1A114.13,114.13,0,0,1,57,609.14C30.84,593,13.09,570.43,4.73,540.73,2.9,534.23,1.56,527.58,0,521ZM506,120.77c-1.5-.12-2.79-.32-4.09-.32-22.5,0-45-.32-67.49.14a212.72,212.72,0,0,0-33.25,3.09c-18.33,3.29-34.4,11.25-46.28,26.27-11.27,14.26-16.27,31-17.38,48.62-1.24,19.76-.93,39.62-1.29,59.43,0,1.92,0,3.84,0,6.24H298.27v5.9q0,28,0,56c0,11,0,11,11.05,11h26.93V553.64h97.89V337.11h5.94c15.66,0,31.33-.17,47,.11,4.5.08,6-1.34,6.4-5.74,1.24-13.93,2.92-27.82,4.4-41.73.9-8.38,1.75-16.76,2.68-25.73h-67c.54-18.64.7-36.76,1.78-54.83.47-8,6.25-12.62,13.9-14.44a48.54,48.54,0,0,1,10.36-1.46c13.66-.21,27.33-.16,41-.21H506Z"/></svg>