<svg id="Layer_1" data-name="Layer 1" xmlns="http://www.w3.org/2000/svg" viewBox="0 0 456.35 456.8"><defs><style>.cls-1{fill:#fff;}</style></defs><title>instagram</title><path class="cls-1" d="M228.18,0c30.81.54,61.63.84,92.43,1.71,26.6.75,52.38,5.51,75.48,19.64,30.27,18.52,48.79,45.79,54.73,80.44,3.56,20.73,4.79,42,5.12,63.1.69,45.31.42,90.64-.08,136-.26,23.78-1.06,47.66-9,70.53-15.34,44.34-46.49,71.25-92.14,79.89-20.62,3.9-42,4.8-63.08,5.12-45.14.69-90.31.41-135.46-.07-23.79-.26-47.66-1.06-70.55-8.9-44.4-15.23-71.33-46.38-80.09-92-3.95-20.61-4.83-42-5.15-63.08-.69-45.31-.43-90.64.07-136,.26-23.78,1.07-47.66,9-70.53C24.81,41.52,56,14.63,101.61,6c20.62-3.9,42-4.34,63.08-5.17S207,.64,228.17.64ZM40.46,224.61l.71,0c0,9.67-.25,19.34,0,29,.88,28.29.85,56.66,3.25,84.83,3.23,38.09,26.65,64.77,64,71.89,20.6,3.93,42,4.51,63.08,4.92,37.82.73,75.66.5,113.49.08,17.62-.2,35.3-1.08,52.84-2.86C376.2,408.6,402.71,385.75,410,348c3.87-20.11,4.45-41,4.83-61.6.72-38.48.62-77,0-115.48-.3-19.44-1-39.06-4-58.22-4.92-31.68-22.72-54.11-54-63.62a135.3,135.3,0,0,0-35.33-5.72Q259,41.69,196.56,41.84c-25.95.09-52,.92-77.83,3-23.21,1.9-43.32,11.52-57.89,30.61C49,91,44.13,109.18,43.29,128.22,41.86,160.33,41.36,192.48,40.46,224.61Z"/><path class="cls-1" d="M228.59,111.48c65,0,116.77,52.33,116.74,118.06,0,64.53-52.61,116.29-118.06,116.24C162.72,345.73,111,293.2,111,227.72,111.06,163.37,163.55,111.47,228.59,111.48Zm75.59,117.38c.17-41.66-34.11-76.15-75.77-76.24a76.36,76.36,0,0,0-76.24,75.77c-.17,41.66,34,76.05,75.77,76.25S304,270.59,304.18,228.86Z"/><path class="cls-1" d="M377.32,107a27.44,27.44,0,0,1-27.14,27.45A27.84,27.84,0,0,1,322.37,107,27.45,27.45,0,0,1,350,79.49C365.52,79.5,377.34,91.39,377.32,107Z"/></svg>