<svg id="svg" version="1.1" xmlns="http://www.w3.org/2000/svg" xmlns:xlink="http://www.w3.org/1999/xlink" width="400" height="400" viewBox="0, 0, 400,400"><g id="svgg"><path id="path0" d="M198.400 13.881 C 187.084 14.772,175.362 20.320,163.760 30.278 C 158.291 34.971,158.356 34.349,162.876 38.768 L 166.553 42.361 169.376 39.851 C 189.340 22.102,207.597 19.896,224.171 33.228 C 240.719 46.540,244.448 68.275,233.085 85.171 C 230.775 88.605,199.888 120.001,198.820 119.999 C 198.479 119.999,188.480 110.280,176.600 98.402 C 153.336 75.143,154.539 76.195,153.386 78.096 C 151.387 81.390,151.023 85.375,152.421 88.667 C 153.339 90.828,197.597 135.600,198.815 135.600 C 199.975 135.600,238.736 96.223,241.536 92.200 C 245.205 86.930,247.360 82.678,249.070 77.338 L 250.587 72.600 250.591 65.400 C 250.595 57.699,250.404 56.504,248.058 49.577 C 240.910 28.469,220.056 12.460,201.284 13.670 C 200.688 13.708,199.390 13.803,198.400 13.881 M59.100 153.421 C 58.935 153.593,58.800 155.754,58.800 158.224 C 58.800 163.307,58.730 163.200,62.081 163.200 C 78.869 163.200,91.223 177.485,91.193 196.863 C 91.160 217.929,81.719 231.573,66.033 233.224 C 62.216 233.626,38.715 233.727,37.300 233.348 L 36.400 233.107 36.400 205.341 C 36.400 175.028,36.521 176.496,34.128 177.734 C 32.442 178.606,30.955 180.231,29.918 182.337 L 29.000 184.200 29.000 213.600 L 29.000 243.000 49.000 243.000 C 70.465 243.000,70.185 243.022,76.000 240.840 C 102.271 230.982,106.650 177.560,82.600 160.329 C 76.837 156.201,60.924 151.523,59.100 153.421 M151.600 198.400 L 151.600 243.200 168.600 243.200 L 185.600 243.200 185.600 239.200 L 185.600 235.200 173.280 235.200 C 164.231 235.200,160.833 235.073,160.480 234.720 C 160.113 234.353,160.000 224.747,160.000 193.920 L 160.000 153.600 155.800 153.600 L 151.600 153.600 151.600 198.400 M317.067 153.867 C 316.733 154.200,316.713 160.508,317.043 161.367 C 317.257 161.926,318.761 162.000,329.843 162.000 L 342.400 162.000 342.400 202.614 L 342.400 243.227 346.700 243.114 L 351.000 243.000 351.102 202.500 L 351.204 162.000 363.802 162.000 L 376.400 162.000 376.400 157.800 L 376.400 153.600 346.867 153.600 C 330.623 153.600,317.213 153.720,317.067 153.867 M238.250 180.041 C 225.722 181.870,213.944 193.147,211.606 205.555 C 205.321 238.903,247.787 258.076,269.293 231.600 C 274.131 225.643,277.202 215.643,275.848 210.249 L 275.582 209.190 260.491 209.295 L 245.400 209.400 245.400 213.400 L 245.400 217.400 255.400 217.502 C 267.266 217.623,266.485 217.456,265.803 219.723 C 258.176 245.065,220.381 238.657,220.252 212.000 C 220.137 188.233,250.385 178.845,263.323 198.632 L 264.610 200.600 269.305 200.713 C 274.588 200.839,274.481 200.922,272.944 197.890 C 266.394 184.964,252.719 177.928,238.250 180.041 M107.284 181.676 C 106.722 182.238,106.574 242.225,107.132 243.104 C 107.384 243.500,111.073 243.586,124.226 243.504 L 141.000 243.400 141.000 239.400 L 141.000 235.400 128.834 235.294 C 120.672 235.223,116.492 235.042,116.134 234.745 C 115.355 234.099,115.355 214.702,116.134 214.055 C 116.490 213.759,120.568 213.577,128.434 213.506 L 140.200 213.400 140.200 209.400 L 140.200 205.400 128.220 205.294 C 119.247 205.214,116.161 205.064,115.926 204.694 C 115.380 203.835,115.535 191.041,116.100 190.279 C 116.547 189.677,117.900 189.594,128.800 189.503 L 141.000 189.400 141.000 185.400 L 141.000 181.400 124.384 181.296 C 111.795 181.217,107.651 181.309,107.284 181.676 M284.184 181.700 C 284.079 181.975,284.040 195.880,284.097 212.600 L 284.200 243.000 288.500 243.114 L 292.800 243.227 292.800 229.246 C 292.800 221.557,292.909 214.981,293.043 214.633 C 293.412 213.671,320.188 213.671,320.557 214.633 C 320.691 214.981,320.800 221.557,320.800 229.246 L 320.800 243.227 325.100 243.114 L 329.400 243.000 329.400 212.200 L 329.400 181.400 325.100 181.286 L 320.800 181.173 320.800 192.754 C 320.800 199.123,320.691 204.619,320.557 204.967 C 320.188 205.929,293.412 205.929,293.043 204.967 C 292.909 204.619,292.800 199.129,292.800 192.767 L 292.800 181.200 288.587 181.200 C 285.586 181.200,284.320 181.344,284.184 181.700 M194.989 189.686 C 194.881 189.969,194.839 202.170,194.896 216.800 L 195.000 243.400 199.303 243.514 L 203.606 243.627 203.503 216.514 L 203.400 189.400 199.293 189.286 C 196.231 189.201,195.136 189.303,194.989 189.686 " stroke="none" fill="#0aaeae" fill-rule="evenodd"></path><path id="path1" d="M196.800 39.855 C 189.626 41.286,183.494 44.975,178.200 51.045 C 175.150 54.542,175.110 54.997,177.735 56.348 C 181.611 58.343,185.789 57.669,190.277 54.324 C 194.491 51.184,197.463 49.926,200.701 49.912 C 212.666 49.860,218.180 61.939,211.056 72.600 C 209.483 74.955,199.170 85.600,198.462 85.600 C 198.264 85.600,188.854 76.418,177.551 65.196 C 166.248 53.974,156.143 43.944,155.096 42.908 L 153.193 41.023 149.396 44.804 C 147.308 46.883,145.600 48.770,145.600 48.996 C 145.600 49.537,196.889 100.800,197.429 100.800 C 198.323 100.800,219.857 78.604,221.295 76.200 C 231.597 58.983,216.111 36.005,196.800 39.855 M196.093 164.049 C 193.007 164.940,190.394 168.780,190.411 172.400 C 190.440 178.591,197.985 182.593,203.287 179.231 C 211.652 173.926,205.664 161.287,196.093 164.049 M285.287 263.438 L 285.400 268.200 289.013 268.455 C 298.869 269.149,306.118 273.250,309.472 280.029 C 314.354 289.899,312.359 303.715,304.987 311.087 C 299.944 316.130,296.813 316.865,281.000 316.712 L 269.400 316.600 269.296 296.486 C 269.181 274.196,269.379 275.598,266.460 276.384 C 264.405 276.937,262.612 278.438,261.482 280.550 C 260.394 282.585,259.831 325.392,260.884 326.060 C 261.641 326.541,290.439 326.472,294.410 325.980 C 307.188 324.398,315.840 316.293,319.155 302.800 C 325.121 278.521,312.765 260.365,289.299 258.929 L 285.174 258.677 285.287 263.438 M320.632 262.748 C 320.513 262.940,325.588 270.995,331.908 280.648 L 343.400 298.200 343.600 311.600 L 343.800 325.000 347.600 325.000 L 351.400 325.000 351.600 311.600 L 351.800 298.200 358.985 287.600 C 373.494 266.196,375.560 263.059,375.358 262.733 C 375.088 262.295,367.557 262.313,366.863 262.752 C 366.568 262.940,365.183 264.872,363.785 267.046 C 359.073 274.374,350.126 288.589,349.356 289.968 C 348.204 292.033,347.967 291.901,345.640 287.901 C 340.929 279.801,330.364 263.409,329.402 262.706 C 328.832 262.289,320.892 262.328,320.632 262.748 M134.281 263.053 C 134.126 263.207,134.000 277.268,134.000 294.298 L 134.000 325.263 150.100 325.096 C 167.171 324.918,166.874 324.949,171.720 322.845 C 184.095 317.471,184.082 298.379,171.700 293.015 C 169.611 292.110,169.595 291.866,171.542 290.637 C 180.811 284.785,179.708 270.283,169.607 265.209 C 166.379 263.587,163.811 263.154,155.994 262.909 C 147.648 262.649,147.907 262.520,148.082 266.863 L 148.200 269.800 154.693 270.054 C 167.276 270.547,170.586 272.923,169.918 280.982 C 169.426 286.914,166.054 288.762,155.000 289.157 L 148.200 289.400 148.200 292.800 L 148.200 296.200 155.800 296.454 C 169.385 296.908,174.287 300.820,172.411 309.711 C 170.975 316.518,168.087 317.761,153.303 317.928 L 142.006 318.056 141.903 290.528 L 141.800 263.000 138.181 262.886 C 136.190 262.823,134.435 262.898,134.281 263.053 M213.400 263.240 C 194.630 265.915,182.034 286.545,187.902 305.000 C 194.016 324.228,217.378 333.551,234.800 323.715 C 267.057 305.504,250.243 257.988,213.400 263.240 M224.758 272.051 C 242.002 275.765,248.428 298.846,235.859 311.927 C 230.723 317.273,220.319 320.334,214.028 318.349 C 209.943 317.061,208.778 316.543,206.311 314.921 C 184.481 300.569,199.127 266.531,224.758 272.051 " stroke="none" fill="#829090" fill-rule="evenodd"></path><path id="path2" d="M0.000 200.000 L 0.000 400.000 200.000 400.000 L 400.000 400.000 400.000 200.000 L 400.000 0.000 200.000 0.000 L 0.000 0.000 0.000 200.000 M206.190 13.215 C 208.998 13.443,211.926 13.893,212.697 14.215 C 213.467 14.537,214.391 14.801,214.749 14.802 C 215.107 14.804,215.916 15.074,216.546 15.402 C 217.176 15.731,217.870 16.000,218.088 16.000 C 218.306 16.000,219.410 16.476,220.542 17.057 C 221.674 17.639,223.140 18.389,223.800 18.724 C 225.412 19.544,229.701 22.389,230.200 22.971 C 230.420 23.227,230.999 23.711,231.487 24.047 C 238.099 28.596,246.741 41.548,249.214 50.616 C 249.691 52.367,250.362 54.700,250.703 55.800 C 251.608 58.716,251.834 69.011,251.068 72.400 C 248.841 82.244,246.376 87.491,240.450 95.000 C 237.656 98.541,199.478 136.800,198.739 136.800 C 197.830 136.800,152.983 91.612,152.094 89.800 C 150.723 87.007,150.291 84.398,150.829 82.169 C 151.491 79.433,153.474 76.000,154.393 76.000 C 154.828 76.000,163.967 84.771,176.794 97.500 C 188.711 109.325,198.586 119.046,198.739 119.103 C 199.303 119.312,230.684 87.368,232.323 84.916 C 240.463 72.742,241.198 60.427,234.557 47.475 C 233.540 45.491,232.552 43.673,232.362 43.434 C 232.171 43.195,230.952 41.634,229.654 39.964 C 228.355 38.295,226.057 35.880,224.546 34.598 C 219.927 30.678,217.258 29.164,210.000 26.344 C 207.187 25.251,195.581 25.635,191.800 26.946 C 184.014 29.645,178.089 33.252,170.684 39.800 C 168.942 41.340,167.266 42.779,166.959 42.998 C 166.532 43.302,165.401 42.397,162.148 39.143 L 157.895 34.890 158.620 33.945 C 159.692 32.548,165.005 27.951,168.205 25.651 C 169.742 24.546,171.450 23.302,172.000 22.887 C 173.378 21.845,178.260 19.083,180.200 18.246 C 181.080 17.867,182.250 17.319,182.800 17.028 C 185.767 15.459,194.055 13.329,198.200 13.069 C 199.300 13.001,200.399 12.912,200.642 12.872 C 200.885 12.832,203.381 12.987,206.190 13.215 M208.000 40.370 C 218.809 44.045,225.000 52.578,225.000 63.800 L 225.000 69.800 223.310 73.317 C 220.933 78.265,219.392 80.084,207.841 91.576 L 197.612 101.751 196.547 100.776 C 192.867 97.407,144.800 49.377,144.800 49.068 C 144.800 48.273,152.582 40.768,153.286 40.884 C 153.674 40.948,163.858 50.855,175.917 62.900 C 187.976 74.945,198.105 84.800,198.427 84.800 C 199.284 84.800,209.236 74.571,210.880 72.000 C 220.403 57.109,204.895 43.637,190.800 54.555 C 186.018 58.260,181.723 59.054,177.760 56.969 C 174.014 54.998,174.116 54.494,179.347 49.086 C 187.686 40.465,198.555 37.158,208.000 40.370 M66.404 153.217 C 72.458 154.233,81.600 157.558,81.600 158.744 C 81.600 158.888,82.115 159.233,82.745 159.512 C 86.014 160.959,92.798 169.436,94.979 174.800 C 95.560 176.230,96.203 177.760,96.408 178.200 C 99.332 184.486,100.186 201.740,97.985 210.036 C 97.775 210.826,97.420 212.442,97.195 213.627 C 95.143 224.447,87.236 235.987,78.904 240.321 C 72.344 243.735,71.773 243.800,48.600 243.800 L 28.200 243.800 28.200 213.991 L 28.200 184.182 29.497 181.547 C 31.013 178.470,32.998 176.846,35.426 176.697 L 37.000 176.600 37.103 204.517 L 37.205 232.434 53.503 232.317 L 69.800 232.200 73.000 230.835 C 84.131 226.088,90.123 214.491,90.172 197.600 C 90.229 177.731,80.266 165.270,63.458 164.187 C 57.416 163.797,58.000 164.432,58.000 158.259 C 58.000 151.454,57.542 151.729,66.404 153.217 M160.800 193.600 L 161.000 234.200 173.600 234.400 L 186.200 234.600 186.314 238.942 C 186.389 241.801,186.270 243.475,185.965 243.842 C 185.227 244.731,151.921 244.664,151.029 243.771 C 150.188 242.931,150.054 154.106,150.892 153.268 C 151.238 152.922,152.748 152.809,155.992 152.888 L 160.600 153.000 160.800 193.600 M377.000 157.600 L 377.000 162.200 364.500 162.306 L 352.000 162.411 352.000 202.992 C 352.000 242.703,351.983 243.581,351.226 243.986 C 350.038 244.622,342.598 244.521,342.051 243.861 C 341.730 243.474,341.575 231.977,341.502 202.961 L 341.400 162.600 328.800 162.400 L 316.200 162.200 316.086 157.832 C 316.001 154.608,316.106 153.379,316.486 153.137 C 316.769 152.957,330.500 152.852,347.000 152.905 L 377.000 153.000 377.000 157.600 M202.607 164.045 C 207.778 166.476,209.397 172.385,206.173 177.065 C 201.110 184.416,190.000 180.895,190.000 171.939 C 190.000 165.523,196.754 161.294,202.607 164.045 M249.800 179.386 C 260.391 181.600,269.629 188.719,273.830 197.903 C 275.416 201.371,275.402 201.382,269.506 201.512 L 264.422 201.624 263.239 199.912 C 249.568 180.124,221.024 188.161,221.022 211.800 C 221.020 231.086,242.097 241.926,257.269 230.441 C 260.960 227.646,265.200 221.428,265.200 218.808 C 265.200 218.542,261.818 218.400,255.476 218.400 C 243.494 218.400,244.334 218.813,244.486 212.995 L 244.600 208.600 260.153 208.495 C 278.260 208.373,276.800 207.994,276.800 212.823 C 276.800 230.598,262.343 244.509,243.800 244.577 C 236.229 244.604,234.107 244.115,227.716 240.866 C 208.456 231.077,204.202 204.984,219.335 189.473 C 225.048 183.618,228.893 181.499,237.800 179.297 C 240.265 178.687,246.687 178.735,249.800 179.386 M293.506 192.700 L 293.612 204.800 306.606 204.800 L 319.600 204.800 319.600 193.276 C 319.600 179.175,319.073 180.337,325.405 180.486 L 330.200 180.600 330.200 212.200 L 330.200 243.800 325.295 243.912 L 320.390 244.025 319.995 242.986 C 319.763 242.377,319.600 236.336,319.600 228.374 L 319.600 214.800 306.605 214.800 L 293.610 214.800 293.505 229.300 L 293.400 243.800 289.200 243.917 C 286.890 243.981,284.595 243.932,284.100 243.809 L 283.200 243.585 283.200 212.259 C 283.200 195.030,283.325 180.808,283.478 180.655 C 283.631 180.502,285.926 180.427,288.578 180.488 L 293.400 180.600 293.506 192.700 M141.757 181.433 C 142.161 182.485,142.029 188.798,141.586 189.626 C 141.191 190.364,140.629 190.400,129.419 190.400 C 122.954 190.400,117.381 190.509,117.033 190.643 C 116.490 190.851,116.400 191.850,116.400 197.637 L 116.400 204.388 128.500 204.494 L 140.600 204.600 140.712 209.494 L 140.825 214.388 128.712 214.494 L 116.600 214.600 116.600 224.400 L 116.600 234.200 128.800 234.303 C 143.121 234.423,142.000 233.990,142.000 239.400 C 142.000 244.930,143.865 244.428,123.800 244.305 L 106.600 244.200 106.498 212.500 L 106.395 180.800 123.955 180.800 C 139.598 180.800,141.541 180.869,141.757 181.433 M203.800 216.600 L 203.800 244.200 199.000 244.200 L 194.200 244.200 194.096 217.000 C 194.039 202.040,194.081 189.569,194.189 189.287 C 194.336 188.901,195.549 188.802,199.092 188.887 L 203.800 189.000 203.800 216.600 M297.213 259.540 C 312.100 263.082,321.030 274.959,321.168 291.400 C 321.183 293.160,321.009 295.680,320.781 297.000 C 320.553 298.320,320.184 300.480,319.961 301.800 C 318.396 311.058,311.629 320.311,303.698 324.041 C 298.373 326.545,297.966 326.586,278.200 326.593 L 260.200 326.600 260.200 304.389 L 260.200 282.178 261.222 280.193 C 262.594 277.526,264.841 275.963,267.434 275.870 L 269.400 275.800 269.600 296.000 L 269.800 316.200 281.400 316.200 C 299.345 316.200,304.139 314.291,308.524 305.400 C 315.094 292.079,311.156 276.916,299.729 271.530 C 296.504 270.011,295.688 269.834,287.600 268.900 L 285.000 268.600 284.886 264.024 C 284.824 261.508,284.873 259.186,284.997 258.864 C 285.294 258.089,292.878 258.509,297.213 259.540 M330.065 262.500 C 330.752 263.056,343.311 282.840,346.053 287.687 C 348.201 291.483,347.681 291.639,351.000 286.198 C 352.540 283.673,354.880 279.927,356.200 277.874 C 357.520 275.822,360.130 271.747,362.000 268.819 C 366.701 261.460,365.971 262.000,371.213 262.000 C 377.559 262.000,378.439 259.790,363.005 282.600 C 359.729 287.440,355.914 293.095,354.525 295.167 L 352.000 298.934 352.000 312.220 L 352.000 325.507 351.100 325.748 C 349.943 326.058,345.267 326.061,344.115 325.752 L 343.230 325.515 343.115 312.057 L 343.000 298.600 339.000 292.484 C 336.800 289.120,333.200 283.630,331.000 280.284 C 319.823 263.283,319.383 262.555,320.103 262.264 C 321.223 261.812,329.456 262.007,330.065 262.500 M142.400 290.000 L 142.600 317.400 153.200 317.400 C 168.940 317.400,172.534 315.286,171.905 306.397 C 171.405 299.334,167.882 297.274,155.600 296.862 L 147.800 296.600 147.800 292.800 L 147.800 289.000 154.800 288.755 C 167.055 288.325,170.806 285.391,169.157 277.524 C 168.046 272.226,165.716 271.072,155.718 270.871 C 147.103 270.697,147.526 270.947,147.684 266.140 L 147.800 262.600 154.400 262.487 C 162.359 262.351,165.657 262.807,169.381 264.558 C 180.437 269.757,181.594 285.379,171.374 291.460 C 170.612 291.913,170.613 291.926,171.400 292.236 C 183.954 297.184,185.022 316.911,173.051 322.746 C 167.125 325.634,166.898 325.664,149.506 325.886 L 134.012 326.084 133.606 325.016 C 133.165 323.856,133.021 264.908,133.456 263.287 C 133.693 262.399,133.819 262.377,137.950 262.487 L 142.200 262.600 142.400 290.000 M230.000 263.965 C 238.780 267.279,246.167 273.856,249.261 281.113 C 249.704 282.151,250.319 283.562,250.628 284.250 C 251.656 286.536,252.400 291.204,252.393 295.326 C 252.348 321.661,222.757 337.065,200.447 322.367 C 178.464 307.885,182.236 274.061,206.895 264.554 C 213.824 261.882,223.807 261.628,230.000 263.965 M213.800 272.557 C 197.368 275.835,190.659 298.226,202.324 310.858 C 213.679 323.155,234.004 319.687,240.170 304.400 C 240.569 303.410,241.099 302.168,241.348 301.639 C 242.351 299.508,241.919 290.105,240.672 286.919 C 236.350 275.877,225.698 270.184,213.800 272.557 M352.165 344.242 C 353.111 344.605,352.511 345.200,351.200 345.200 C 349.969 345.200,349.264 344.602,350.098 344.266 C 350.823 343.973,351.447 343.966,352.165 344.242 " stroke="none" fill="#fbfbfb" fill-rule="evenodd"></path><path id="path3" d="M197.200 13.623 C 185.302 14.859,172.133 21.559,161.201 31.940 L 158.203 34.787 162.194 38.794 C 166.929 43.547,166.213 43.418,169.740 40.152 C 183.158 27.727,197.197 22.920,210.539 26.181 C 211.012 26.297,210.770 26.098,210.000 25.739 C 208.108 24.858,199.333 24.513,195.905 25.185 C 186.968 26.938,178.857 31.422,169.376 39.851 L 166.553 42.361 162.876 38.768 C 158.356 34.349,158.291 34.971,163.760 30.278 C 176.090 19.695,186.115 15.150,200.400 13.665 C 202.270 13.471,202.990 13.312,202.000 13.312 C 201.010 13.312,198.850 13.452,197.200 13.623 M207.800 14.178 C 223.397 16.340,236.383 26.147,244.907 42.200 C 246.192 44.620,247.128 46.150,246.987 45.600 C 246.617 44.153,242.845 37.463,240.561 34.202 C 232.796 23.116,218.503 14.374,207.200 13.797 L 203.800 13.623 207.800 14.178 M214.400 27.720 C 224.876 32.296,233.918 42.357,237.659 53.600 C 238.298 55.521,238.362 55.600,238.163 54.223 C 236.898 45.472,224.694 31.393,214.870 27.353 C 211.395 25.923,210.997 26.234,214.400 27.720 M247.282 47.200 C 247.584 48.105,249.452 54.006,249.941 55.600 L 250.371 57.000 250.155 55.600 C 249.819 53.422,247.978 47.446,247.506 47.000 C 247.216 46.726,247.145 46.789,247.282 47.200 M238.562 56.800 C 239.711 61.778,239.717 65.461,238.585 72.200 C 238.408 73.251,238.432 73.290,238.775 72.508 C 240.132 69.428,240.099 58.307,238.728 56.364 C 238.437 55.951,238.392 56.068,238.562 56.800 M250.600 65.181 C 250.600 69.656,250.725 72.615,250.877 71.758 C 251.217 69.842,251.200 59.839,250.853 58.223 C 250.714 57.575,250.600 60.706,250.600 65.181 M237.623 75.300 C 236.846 77.928,233.825 83.506,231.530 86.554 C 229.628 89.079,199.695 119.222,198.776 119.537 C 198.556 119.613,188.658 109.983,176.780 98.137 C 164.902 86.292,154.927 76.544,154.613 76.475 C 154.055 76.352,152.656 78.285,151.686 80.519 C 150.821 82.511,151.083 86.732,152.224 89.183 C 153.198 91.275,163.946 102.246,194.160 131.988 L 198.821 136.576 217.642 117.788 C 236.606 98.857,241.053 94.104,243.719 89.913 C 245.533 87.061,247.312 83.579,247.076 83.342 C 246.978 83.244,246.284 84.346,245.535 85.791 C 242.119 92.378,239.711 95.116,219.235 115.700 C 208.348 126.645,199.159 135.600,198.815 135.600 C 197.597 135.600,153.339 90.828,152.421 88.667 C 151.023 85.375,151.387 81.390,153.386 78.096 C 154.539 76.195,153.336 75.143,176.600 98.402 C 188.480 110.280,198.479 119.999,198.820 119.999 C 199.888 120.001,230.775 88.605,233.085 85.171 C 235.326 81.838,237.870 76.749,238.254 74.830 C 238.615 73.026,238.206 73.331,237.623 75.300 M248.751 78.231 C 247.957 80.744,247.370 82.800,247.448 82.800 C 247.878 82.800,250.655 74.121,250.329 73.796 C 250.256 73.723,249.546 75.719,248.751 78.231 M58.667 153.067 C 58.145 153.588,58.363 163.214,58.900 163.379 C 59.175 163.464,61.020 163.617,63.000 163.720 C 65.023 163.825,66.162 163.770,65.600 163.594 C 65.050 163.421,63.520 163.259,62.200 163.234 C 58.709 163.167,58.755 163.240,58.886 157.968 L 59.000 153.400 60.800 153.160 L 62.600 152.920 60.767 152.860 C 59.758 152.827,58.813 152.920,58.667 153.067 M66.055 153.804 C 79.194 156.421,86.748 161.553,92.614 171.846 C 94.537 175.221,95.084 175.484,93.342 172.197 C 88.473 163.003,80.150 156.636,69.802 154.191 C 67.495 153.646,65.110 153.217,64.503 153.238 C 63.896 153.258,64.595 153.513,66.055 153.804 M151.043 153.833 C 150.410 155.481,150.786 242.729,151.429 243.371 C 152.072 244.015,183.757 244.375,185.367 243.757 C 185.891 243.556,186.000 242.762,186.000 239.163 L 186.000 234.811 173.300 234.706 L 160.600 234.600 160.498 193.900 L 160.396 153.200 155.841 153.200 C 152.056 153.200,151.245 153.307,151.043 153.833 M316.667 153.467 C 316.297 153.836,316.329 162.000,316.700 162.001 C 316.865 162.001,317.000 160.156,317.000 157.901 L 317.000 153.800 346.686 153.697 L 376.373 153.595 376.501 157.897 L 376.630 162.200 376.715 157.700 L 376.800 153.200 346.867 153.200 C 330.403 153.200,316.813 153.320,316.667 153.467 M160.000 193.920 C 160.000 224.747,160.113 234.353,160.480 234.720 C 160.833 235.073,164.231 235.200,173.280 235.200 L 185.600 235.200 185.600 239.200 L 185.600 243.200 168.600 243.200 L 151.600 243.200 151.600 198.400 L 151.600 153.600 155.800 153.600 L 160.000 153.600 160.000 193.920 M341.500 162.265 C 341.895 162.424,342.000 170.946,342.000 202.991 C 342.000 239.574,342.062 243.538,342.633 243.757 C 343.819 244.212,350.618 244.022,351.120 243.520 C 351.487 243.153,351.600 233.554,351.600 202.753 C 351.600 170.898,351.705 162.424,352.100 162.265 C 352.399 162.144,352.320 162.050,351.902 162.032 C 351.243 162.002,351.198 164.262,351.102 202.500 L 351.000 243.000 346.700 243.114 L 342.400 243.227 342.400 202.614 C 342.400 164.189,342.362 162.002,341.700 162.032 C 341.282 162.050,341.201 162.144,341.500 162.265 M67.600 164.400 C 68.968 164.838,70.019 164.838,69.000 164.400 C 68.560 164.211,67.840 164.062,67.400 164.068 C 66.757 164.077,66.796 164.143,67.600 164.400 M72.294 165.741 C 80.134 168.740,85.876 174.866,88.517 183.048 C 90.410 188.915,90.600 190.277,90.599 198.000 C 90.598 202.093,90.719 204.596,90.869 203.600 C 93.529 185.959,84.012 167.299,71.200 165.034 C 70.269 164.870,70.635 165.106,72.294 165.741 M94.400 175.426 C 94.400 175.551,94.608 176.042,94.863 176.518 C 97.546 181.531,99.114 194.396,98.139 203.400 C 97.294 211.210,94.421 221.555,92.124 225.060 C 91.776 225.591,91.594 226.127,91.719 226.252 C 92.357 226.890,96.148 216.894,97.352 211.400 C 99.707 200.655,99.600 191.857,96.993 181.800 C 95.857 177.419,94.400 173.837,94.400 175.426 M33.600 177.531 C 28.426 180.305,28.376 180.665,28.497 214.612 L 28.600 243.400 48.145 243.504 L 67.690 243.608 71.656 242.605 C 79.616 240.593,85.265 236.567,90.088 229.469 C 90.959 228.187,91.597 227.063,91.505 226.972 C 91.413 226.880,90.508 228.019,89.494 229.502 C 85.975 234.649,80.710 239.073,76.000 240.840 C 70.185 243.022,70.465 243.000,49.000 243.000 L 29.000 243.000 29.000 213.600 L 29.000 184.200 29.918 182.337 C 30.955 180.231,32.442 178.606,34.128 177.734 C 36.521 176.496,36.400 175.028,36.400 205.341 L 36.400 233.107 37.300 233.348 C 40.552 234.219,69.173 233.382,70.736 232.369 C 71.291 232.010,71.268 231.992,70.600 232.257 C 70.160 232.432,62.376 232.638,53.303 232.715 L 36.805 232.855 36.703 204.928 C 36.587 173.452,36.852 175.788,33.600 177.531 M238.074 179.581 C 236.904 179.767,235.824 180.053,235.674 180.217 C 235.523 180.381,236.030 180.394,236.800 180.247 C 251.557 177.420,266.191 184.564,272.944 197.890 C 274.481 200.922,274.588 200.839,269.305 200.713 L 264.610 200.600 263.320 198.628 C 261.717 196.176,258.417 192.802,256.697 191.855 L 255.400 191.142 256.400 191.993 C 256.950 192.461,258.175 193.482,259.123 194.261 C 260.070 195.040,261.671 196.920,262.681 198.439 L 264.517 201.200 269.235 201.200 C 274.648 201.200,274.801 201.104,273.656 198.441 C 268.047 185.404,252.684 177.261,238.074 179.581 M231.734 181.358 C 218.235 186.375,209.121 201.035,210.756 215.103 C 211.020 217.371,211.411 219.625,211.626 220.113 C 211.959 220.869,211.982 220.823,211.780 219.800 C 208.490 203.156,217.453 186.687,232.583 181.576 C 234.022 181.090,235.200 180.626,235.200 180.546 C 235.200 180.224,234.080 180.486,231.734 181.358 M107.100 181.232 C 106.393 181.644,105.952 241.568,106.643 243.367 C 106.904 244.047,141.200 244.377,141.200 243.700 C 141.200 243.535,133.608 243.449,124.329 243.509 C 111.020 243.594,107.390 243.510,107.135 243.109 C 106.530 242.155,106.725 182.160,107.336 181.654 C 107.704 181.348,112.973 181.175,124.236 181.100 L 140.600 180.991 124.200 180.908 C 113.631 180.854,107.551 180.969,107.100 181.232 M283.784 181.300 C 283.679 181.575,283.640 195.660,283.697 212.600 L 283.800 243.400 288.500 243.513 L 293.200 243.625 293.206 229.513 C 293.209 221.751,293.357 215.172,293.533 214.894 C 293.783 214.500,296.755 214.412,307.027 214.494 L 320.200 214.600 320.305 229.113 L 320.410 243.625 325.105 243.513 L 329.800 243.400 329.800 212.200 L 329.800 181.000 325.106 180.887 L 320.412 180.775 320.306 192.887 L 320.200 205.000 307.027 205.106 C 296.755 205.188,293.783 205.100,293.533 204.706 C 293.357 204.428,293.209 198.935,293.206 192.500 L 293.200 180.800 288.587 180.800 C 285.266 180.800,283.921 180.940,283.784 181.300 M292.800 192.767 C 292.800 199.129,292.909 204.619,293.043 204.967 C 293.412 205.929,320.188 205.929,320.557 204.967 C 320.691 204.619,320.800 199.123,320.800 192.754 L 320.800 181.173 325.100 181.286 L 329.400 181.400 329.400 212.200 L 329.400 243.000 325.100 243.114 L 320.800 243.227 320.800 229.246 C 320.800 221.557,320.691 214.981,320.557 214.633 C 320.188 213.671,293.412 213.671,293.043 214.633 C 292.909 214.981,292.800 221.557,292.800 229.246 L 292.800 243.227 288.500 243.114 L 284.200 243.000 284.097 212.600 C 284.040 195.880,284.079 181.975,284.184 181.700 C 284.320 181.344,285.586 181.200,288.587 181.200 L 292.800 181.200 292.800 192.767 M141.342 185.400 C 141.341 187.380,141.408 188.240,141.492 187.312 C 141.576 186.384,141.577 184.764,141.495 183.712 C 141.412 182.660,141.343 183.420,141.342 185.400 M242.100 188.291 C 242.925 188.378,244.275 188.378,245.100 188.291 C 245.925 188.205,245.250 188.134,243.600 188.134 C 241.950 188.134,241.275 188.205,242.100 188.291 M235.600 189.328 C 219.482 194.769,214.729 216.809,227.071 228.877 C 232.342 234.030,240.510 236.898,246.400 235.665 C 247.958 235.338,247.598 235.282,243.721 235.244 C 216.960 234.982,211.504 196.937,237.139 189.349 C 238.823 188.851,239.750 188.445,239.200 188.447 C 238.650 188.449,237.030 188.846,235.600 189.328 M249.200 188.971 C 250.190 189.245,251.883 189.861,252.962 190.340 C 255.086 191.282,255.995 191.230,254.137 190.273 C 252.728 189.547,248.873 188.388,248.027 188.436 C 247.682 188.455,248.210 188.696,249.200 188.971 M128.800 189.496 C 117.904 189.594,116.547 189.677,116.100 190.279 C 115.535 191.041,115.380 203.835,115.926 204.694 C 116.161 205.064,119.247 205.214,128.220 205.294 L 140.200 205.400 140.200 209.400 L 140.200 213.400 128.434 213.506 C 120.568 213.577,116.490 213.759,116.134 214.055 C 115.355 214.702,115.355 234.099,116.134 234.745 C 116.492 235.042,120.672 235.223,128.834 235.294 L 141.000 235.400 141.223 239.200 L 141.447 243.000 141.523 239.533 C 141.639 234.296,142.995 234.800,128.800 234.800 C 117.940 234.800,116.457 234.725,116.243 234.167 C 115.744 232.868,115.975 215.387,116.500 214.679 C 116.946 214.078,118.276 213.994,128.800 213.903 L 140.600 213.800 140.718 210.200 C 140.782 208.220,140.735 206.198,140.611 205.706 L 140.388 204.812 128.294 204.706 L 116.200 204.600 116.090 197.853 C 116.015 193.216,116.124 190.933,116.439 190.553 C 116.811 190.105,119.196 190.000,129.049 190.000 C 136.883 190.000,141.200 189.858,141.200 189.600 C 141.200 189.380,141.155 189.242,141.100 189.294 C 141.045 189.346,135.510 189.437,128.800 189.496 M194.497 216.500 L 194.600 243.800 199.200 243.828 L 203.800 243.856 199.400 243.628 L 195.000 243.400 195.000 216.300 C 195.000 201.395,194.864 189.200,194.697 189.200 C 194.531 189.200,194.441 201.485,194.497 216.500 M203.600 216.120 L 203.800 243.000 203.903 216.423 C 203.959 201.805,203.869 189.709,203.703 189.543 C 203.536 189.376,203.490 201.336,203.600 216.120 M89.853 207.201 C 88.199 217.804,82.225 226.834,74.360 230.619 C 72.732 231.402,71.940 231.933,72.600 231.797 C 75.733 231.155,80.923 227.190,83.854 223.200 C 87.074 218.816,91.061 208.182,90.318 205.955 C 90.217 205.651,90.008 206.211,89.853 207.201 M245.071 209.062 C 244.699 209.434,244.726 217.600,245.100 217.601 C 245.265 217.601,245.400 215.756,245.400 213.501 L 245.400 209.400 260.491 209.295 L 275.582 209.190 275.848 210.249 C 278.047 219.009,270.942 232.809,261.000 239.089 C 244.151 249.733,219.996 242.088,213.317 223.998 C 212.160 220.865,211.693 220.453,212.559 223.330 C 218.185 242.023,243.951 250.425,261.517 239.295 C 270.851 233.381,276.689 222.775,276.321 212.400 L 276.200 209.000 260.771 208.895 C 252.286 208.838,245.221 208.913,245.071 209.062 M265.371 218.968 C 265.264 224.098,258.445 231.422,251.325 234.054 C 249.569 234.704,248.813 235.112,249.600 234.986 C 253.395 234.379,259.460 230.313,262.442 226.376 C 264.364 223.839,266.677 218.411,266.088 217.821 C 265.603 217.337,265.399 217.664,265.371 218.968 " stroke="none" fill="#74d4ce" fill-rule="evenodd"></path><path id="path4" d="M198.400 13.061 C 195.635 13.248,191.070 14.049,190.400 14.465 C 189.933 14.755,189.978 14.795,190.600 14.644 C 191.664 14.385,196.673 13.671,200.400 13.248 C 203.290 12.920,202.119 12.810,198.400 13.061 M206.829 13.584 C 208.714 13.770,210.954 14.115,211.806 14.351 C 213.736 14.883,214.103 14.654,212.320 14.030 C 211.594 13.776,209.290 13.496,207.200 13.407 L 203.400 13.245 206.829 13.584 M185.819 15.831 C 184.289 16.365,182.857 16.983,182.637 17.203 C 182.416 17.424,183.757 17.049,185.616 16.370 C 187.476 15.692,189.072 15.061,189.165 14.968 C 189.501 14.632,188.545 14.879,185.819 15.831 M214.400 14.884 C 214.510 14.993,215.226 15.293,215.991 15.551 C 216.756 15.810,217.206 15.850,216.991 15.639 C 216.776 15.429,216.060 15.129,215.400 14.972 C 214.740 14.816,214.290 14.776,214.400 14.884 M218.000 16.288 C 218.330 16.412,219.680 17.046,221.000 17.699 C 222.320 18.351,223.220 18.698,223.000 18.471 C 222.395 17.845,218.560 15.996,217.942 16.032 C 217.542 16.055,217.557 16.122,218.000 16.288 M178.324 19.161 C 174.602 21.087,172.164 22.611,171.761 23.262 C 171.593 23.535,172.044 23.339,172.763 22.827 C 173.481 22.315,175.899 20.933,178.135 19.757 C 180.371 18.580,182.007 17.613,181.770 17.609 C 181.534 17.604,179.983 18.302,178.324 19.161 M224.752 19.627 C 225.495 20.080,227.070 21.165,228.252 22.038 C 229.433 22.911,230.400 23.462,230.400 23.263 C 230.400 22.860,224.372 18.799,223.777 18.801 C 223.570 18.802,224.008 19.174,224.752 19.627 M168.159 25.630 C 164.882 28.050,159.635 32.622,158.622 33.942 L 157.899 34.885 162.042 39.042 C 166.934 43.951,166.235 43.792,169.539 40.746 C 171.002 39.396,173.050 37.652,174.089 36.869 C 175.128 36.086,175.901 35.368,175.807 35.273 C 175.601 35.068,169.894 39.802,168.225 41.561 C 166.611 43.263,166.677 43.294,162.194 38.794 L 158.203 34.787 161.201 31.940 C 162.851 30.374,165.640 28.009,167.400 26.685 C 170.999 23.977,171.455 23.600,171.135 23.600 C 171.011 23.600,169.672 24.513,168.159 25.630 M234.632 27.402 C 238.951 31.684,241.259 34.768,244.659 40.797 C 245.836 42.886,246.800 44.437,246.800 44.245 C 246.800 41.449,236.310 27.468,231.808 24.263 C 231.143 23.790,232.414 25.203,234.632 27.402 M196.400 25.553 C 195.630 25.689,198.150 25.800,202.000 25.800 C 205.938 25.800,208.213 25.682,207.200 25.530 C 205.002 25.200,198.318 25.214,196.400 25.553 M213.952 27.809 C 215.135 28.370,216.178 28.756,216.268 28.665 C 216.359 28.574,215.661 28.188,214.717 27.806 C 211.980 26.700,211.617 26.701,213.952 27.809 M187.412 28.225 C 186.098 28.770,184.851 29.389,184.641 29.599 C 184.298 29.942,189.964 27.718,190.367 27.352 C 190.791 26.966,189.593 27.320,187.412 28.225 M217.000 29.071 C 217.220 29.291,218.750 30.352,220.400 31.429 C 223.763 33.625,229.677 39.363,231.200 41.907 C 231.750 42.827,232.346 43.583,232.526 43.589 C 233.980 43.637,225.335 34.282,221.588 31.752 C 219.258 30.180,216.489 28.562,217.000 29.071 M182.600 30.659 C 180.941 31.526,176.400 34.457,176.400 34.661 C 176.400 34.918,178.063 34.001,179.400 33.008 C 180.060 32.517,181.365 31.726,182.300 31.250 C 183.235 30.773,184.000 30.297,184.000 30.192 C 184.000 29.933,183.972 29.942,182.600 30.659 M194.016 40.001 C 186.221 42.105,172.841 53.066,175.233 55.387 C 179.166 59.204,185.217 58.880,190.800 54.555 C 204.895 43.637,220.403 57.109,210.880 72.000 C 209.236 74.571,199.284 84.800,198.427 84.800 C 198.105 84.800,187.976 74.945,175.917 62.900 C 163.858 50.855,153.674 40.948,153.286 40.884 C 152.582 40.768,144.800 48.273,144.800 49.068 C 144.800 49.377,192.867 97.407,196.547 100.776 L 197.612 101.751 207.841 91.576 C 219.392 80.084,220.933 78.265,223.310 73.317 L 225.000 69.800 225.000 63.800 C 225.000 47.437,209.779 35.746,194.016 40.001 M207.824 40.878 C 222.845 45.837,229.314 62.799,221.295 76.200 C 219.857 78.604,198.323 100.800,197.429 100.800 C 196.889 100.800,145.600 49.537,145.600 48.996 C 145.600 48.770,147.308 46.883,149.396 44.804 L 153.193 41.023 155.096 42.908 C 156.143 43.944,166.248 53.974,177.551 65.196 C 188.854 76.418,198.264 85.600,198.462 85.600 C 199.170 85.600,209.483 74.955,211.056 72.600 C 218.180 61.939,212.666 49.860,200.701 49.912 C 197.463 49.926,194.491 51.184,190.277 54.324 C 185.789 57.669,181.611 58.343,177.735 56.348 C 175.110 54.997,175.150 54.542,178.200 51.045 C 183.494 44.975,189.626 41.286,196.800 39.855 C 199.060 39.405,205.044 39.960,207.824 40.878 M234.200 46.800 C 234.976 48.340,235.700 49.600,235.810 49.600 C 235.920 49.600,235.376 48.340,234.600 46.800 C 233.824 45.260,233.100 44.000,232.990 44.000 C 232.880 44.000,233.424 45.260,234.200 46.800 M246.818 44.922 C 246.808 45.099,247.151 46.014,247.580 46.956 C 248.009 47.898,248.669 49.778,249.046 51.135 C 249.423 52.492,249.812 53.521,249.911 53.422 C 250.176 53.157,248.435 47.625,247.576 46.000 C 247.169 45.230,246.827 44.745,246.818 44.922 M236.218 50.600 C 236.366 51.040,236.951 52.972,237.518 54.892 C 238.085 56.813,238.619 58.314,238.705 58.228 C 238.952 57.981,237.174 51.909,236.530 50.800 C 236.160 50.164,236.047 50.091,236.218 50.600 M250.108 55.259 C 250.952 57.621,251.284 61.375,251.136 66.889 C 251.046 70.250,251.092 72.460,251.239 71.800 C 252.087 67.981,251.336 55.921,250.184 54.882 C 250.013 54.727,249.979 54.897,250.108 55.259 M238.985 64.600 C 238.983 69.563,239.021 69.887,239.323 67.445 C 239.510 65.929,239.511 63.409,239.325 61.845 C 239.022 59.289,238.988 59.569,238.985 64.600 M237.277 74.922 C 236.770 76.505,236.261 78.070,236.147 78.400 C 235.962 78.933,235.986 78.933,236.363 78.400 C 236.952 77.568,238.495 72.882,238.333 72.421 C 238.260 72.213,237.785 73.339,237.277 74.922 M250.446 73.667 C 250.421 74.034,250.296 74.664,250.170 75.067 C 249.952 75.762,249.963 75.763,250.397 75.087 C 250.648 74.696,250.773 74.066,250.673 73.687 C 250.511 73.068,250.488 73.066,250.446 73.667 M152.429 78.149 C 151.753 79.330,151.205 80.545,151.210 80.849 C 151.216 81.152,151.682 80.500,152.246 79.400 C 153.533 76.889,153.991 76.336,154.655 76.483 C 154.946 76.547,164.902 86.292,176.780 98.137 C 188.658 109.983,198.556 119.613,198.776 119.537 C 199.702 119.220,229.633 89.072,231.522 86.554 C 233.523 83.888,236.270 79.200,235.832 79.200 C 235.713 79.200,235.234 79.949,234.767 80.865 C 232.594 85.124,229.823 88.244,214.840 103.303 C 206.137 112.049,198.892 119.159,198.739 119.103 C 198.586 119.046,188.711 109.325,176.794 97.500 C 163.967 84.771,154.828 76.000,154.393 76.000 C 153.924 76.000,153.214 76.777,152.429 78.149 M249.229 78.252 C 246.861 87.655,243.048 92.427,217.642 117.788 L 198.821 136.576 194.160 131.988 C 163.946 102.246,153.198 91.275,152.224 89.183 C 151.665 87.983,151.206 87.232,151.204 87.516 C 151.189 89.444,154.086 92.610,175.535 114.100 C 187.995 126.585,198.437 136.800,198.739 136.800 C 199.478 136.800,237.656 98.541,240.450 95.000 C 245.367 88.770,251.032 77.699,249.888 76.555 C 249.786 76.453,249.489 77.217,249.229 78.252 M150.630 83.100 C 150.497 83.925,150.556 85.140,150.760 85.800 C 151.074 86.816,151.137 86.585,151.166 84.300 C 151.204 81.296,150.994 80.827,150.630 83.100 M58.267 152.667 C 57.427 153.507,58.002 163.585,58.900 163.767 C 60.430 164.077,66.963 164.430,66.723 164.189 C 66.598 164.065,64.719 163.836,62.548 163.681 L 58.600 163.400 58.600 158.200 L 58.600 153.000 61.800 153.053 C 63.967 153.090,64.613 153.008,63.800 152.801 C 62.260 152.408,58.614 152.319,58.267 152.667 M150.892 153.268 C 150.054 154.106,150.188 242.931,151.029 243.771 C 151.921 244.664,185.227 244.731,185.965 243.842 C 186.270 243.475,186.389 241.801,186.314 238.942 L 186.200 234.600 173.600 234.400 L 161.000 234.200 160.800 193.600 L 160.600 153.000 155.992 152.888 C 152.748 152.809,151.238 152.922,150.892 153.268 M316.486 153.137 C 316.106 153.379,316.001 154.608,316.086 157.832 L 316.200 162.200 328.800 162.400 L 341.400 162.600 341.502 202.961 C 341.575 231.977,341.730 243.474,342.051 243.861 C 342.598 244.521,350.038 244.622,351.226 243.986 C 351.984 243.580,351.998 242.754,351.902 202.886 L 351.804 162.200 351.700 202.561 C 351.625 231.574,351.470 243.074,351.149 243.461 C 350.685 244.021,343.932 244.256,342.633 243.757 C 342.062 243.538,342.000 239.575,342.000 203.000 C 342.000 166.425,341.938 162.462,341.367 162.243 C 341.019 162.109,335.253 162.000,328.554 162.000 L 316.373 162.000 316.486 157.700 L 316.600 153.400 346.700 153.297 L 376.800 153.195 376.800 157.592 L 376.800 161.988 364.500 162.103 L 352.200 162.218 364.600 162.209 L 377.000 162.200 377.000 157.600 L 377.000 153.000 347.000 152.905 C 330.500 152.852,316.769 152.957,316.486 153.137 M160.498 193.900 L 160.600 234.600 173.300 234.706 L 186.000 234.811 186.000 239.163 C 186.000 242.762,185.891 243.556,185.367 243.757 C 183.757 244.375,152.072 244.015,151.429 243.371 C 150.786 242.729,150.410 155.481,151.043 153.833 C 151.245 153.307,152.056 153.200,155.841 153.200 L 160.396 153.200 160.498 193.900 M70.800 154.362 C 72.450 154.785,73.862 155.070,73.938 154.995 C 74.141 154.792,71.238 154.023,69.400 153.792 C 68.520 153.682,69.150 153.938,70.800 154.362 M77.330 156.793 C 79.051 157.650,80.716 158.564,81.030 158.825 C 81.373 159.110,81.600 159.136,81.600 158.891 C 81.600 158.498,75.226 155.182,74.539 155.218 C 74.353 155.227,75.608 155.936,77.330 156.793 M83.864 160.754 C 88.812 164.728,92.315 169.476,95.031 175.893 C 95.425 176.824,95.815 177.518,95.897 177.436 C 97.459 175.874,85.010 159.200,82.281 159.200 C 82.087 159.200,82.799 159.900,83.864 160.754 M195.600 163.707 C 189.491 166.475,188.075 173.753,192.718 178.517 C 197.761 183.693,206.986 180.300,207.857 172.950 C 208.589 166.767,201.179 161.179,195.600 163.707 M201.311 164.024 C 204.711 164.968,207.200 168.445,207.200 172.249 C 207.200 181.138,194.884 183.640,191.190 175.502 C 188.215 168.947,194.278 162.071,201.311 164.024 M71.600 165.898 C 77.415 168.072,82.226 171.905,85.193 176.727 C 86.829 179.386,87.189 179.418,85.723 176.774 C 82.815 171.528,75.522 166.164,69.716 165.000 C 69.102 164.877,69.950 165.281,71.600 165.898 M35.900 176.791 L 36.800 177.174 36.800 204.987 L 36.800 232.800 52.300 232.705 L 67.800 232.610 52.503 232.500 L 37.205 232.390 37.103 204.495 L 37.000 176.600 36.000 176.504 C 35.015 176.409,35.013 176.414,35.900 176.791 M32.294 177.865 C 30.729 178.978,28.389 183.018,28.413 184.564 C 28.420 185.024,28.755 184.447,29.158 183.282 C 30.040 180.729,31.729 178.547,33.604 177.542 C 34.365 177.134,34.718 176.800,34.389 176.800 C 34.060 176.800,33.117 177.279,32.294 177.865 M96.006 178.020 C 96.009 178.119,96.282 179.010,96.611 180.000 L 97.210 181.800 96.974 180.200 C 96.792 178.967,95.976 177.129,96.006 178.020 M238.715 179.128 C 238.338 179.278,240.644 179.400,243.839 179.400 C 247.033 179.400,249.232 179.283,248.724 179.140 C 247.492 178.793,239.583 178.784,238.715 179.128 M87.643 181.541 C 88.108 182.918,88.558 183.975,88.643 183.890 C 88.851 183.682,87.584 179.899,87.146 179.419 C 86.954 179.209,87.178 180.164,87.643 181.541 M234.456 180.059 C 233.717 180.272,233.190 180.523,233.285 180.618 C 233.380 180.713,234.254 180.540,235.229 180.235 C 237.218 179.611,236.545 179.458,234.456 180.059 M253.832 180.780 C 255.610 181.396,257.500 182.112,258.032 182.372 C 258.936 182.813,258.950 182.804,258.242 182.236 C 257.490 181.632,251.764 179.572,250.999 179.630 C 250.779 179.647,252.055 180.164,253.832 180.780 M283.478 180.655 C 283.325 180.808,283.200 195.030,283.200 212.259 L 283.200 243.585 284.100 243.809 C 284.595 243.932,286.890 243.981,289.200 243.917 L 293.400 243.800 293.408 229.400 L 293.416 215.000 293.303 229.313 L 293.190 243.625 288.495 243.513 L 283.800 243.400 283.800 212.200 L 283.800 181.000 288.494 180.887 L 293.188 180.775 293.303 192.487 L 293.418 204.200 293.409 192.400 L 293.400 180.600 288.578 180.488 C 285.926 180.427,283.631 180.502,283.478 180.655 M320.021 181.162 C 319.755 181.658,319.600 186.147,319.600 193.368 L 319.600 204.789 306.500 204.903 L 293.400 205.017 306.800 205.008 L 320.200 205.000 320.306 192.887 L 320.412 180.775 325.106 180.887 L 329.800 181.000 329.800 212.200 L 329.800 243.400 325.105 243.513 L 320.410 243.625 320.305 229.113 L 320.200 214.600 306.800 214.592 L 293.400 214.583 306.500 214.697 L 319.600 214.811 319.600 228.379 C 319.600 236.338,319.763 242.377,319.995 242.986 L 320.390 244.025 325.295 243.912 L 330.200 243.800 330.200 212.200 L 330.200 180.600 325.321 180.488 C 320.817 180.384,320.409 180.436,320.021 181.162 M140.971 181.429 C 141.621 182.078,141.870 187.153,141.348 189.100 L 141.107 190.000 129.002 190.000 C 119.189 190.000,116.811 190.105,116.439 190.553 C 116.124 190.933,116.015 193.216,116.090 197.853 L 116.200 204.600 128.180 204.706 C 137.128 204.785,140.249 204.937,140.511 205.306 C 140.766 205.667,140.817 205.638,140.697 205.200 C 140.557 204.687,138.793 204.585,128.467 204.494 L 116.400 204.388 116.400 197.637 C 116.400 191.850,116.490 190.851,117.033 190.643 C 117.381 190.509,122.954 190.400,129.419 190.400 C 143.116 190.400,142.000 190.838,142.000 185.459 C 142.000 181.694,141.794 180.800,140.929 180.800 C 140.432 180.800,140.439 180.896,140.971 181.429 M230.100 181.589 C 229.165 182.014,228.400 182.450,228.400 182.558 C 228.400 182.666,229.165 182.426,230.100 182.024 C 231.035 181.622,232.070 181.197,232.400 181.078 C 232.933 180.887,232.933 180.861,232.400 180.840 C 232.070 180.828,231.035 181.165,230.100 181.589 M97.268 182.600 C 97.262 183.040,97.411 183.760,97.600 184.200 C 98.038 185.219,98.038 184.168,97.600 182.800 C 97.343 181.996,97.277 181.957,97.268 182.600 M225.700 183.926 C 224.765 184.512,224.000 185.121,224.000 185.279 C 224.000 185.437,224.900 185.007,226.000 184.324 C 227.100 183.640,228.000 183.017,228.000 182.940 C 228.000 182.623,227.308 182.920,225.700 183.926 M259.233 182.930 C 260.394 183.839,263.200 185.504,263.200 185.284 C 263.200 184.990,259.776 182.800,259.317 182.800 C 259.179 182.800,259.142 182.859,259.233 182.930 M88.806 184.633 C 88.809 184.835,89.114 186.170,89.483 187.600 C 89.995 189.585,90.158 192.045,90.171 198.000 C 90.184 204.246,90.255 205.242,90.525 203.000 C 90.992 199.131,90.605 190.770,89.803 187.402 C 89.191 184.832,88.791 183.721,88.806 184.633 M98.279 187.200 C 99.079 194.282,99.162 194.770,98.964 191.200 C 98.861 189.330,98.608 187.170,98.403 186.400 C 98.101 185.264,98.078 185.416,98.279 187.200 M28.195 214.600 L 28.200 243.800 47.400 243.808 L 66.600 243.816 47.600 243.608 L 28.600 243.400 28.395 214.400 L 28.189 185.400 28.195 214.600 M219.655 189.153 C 217.755 191.108,215.790 193.448,215.288 194.353 C 213.995 196.688,214.426 196.393,216.191 193.734 C 217.019 192.488,219.051 190.148,220.707 188.534 C 222.363 186.920,223.581 185.600,223.414 185.600 C 223.247 185.600,221.556 187.199,219.655 189.153 M265.482 187.400 C 266.434 188.280,267.946 189.810,268.842 190.800 C 270.402 192.523,270.420 192.532,269.271 191.000 C 268.072 189.402,266.133 187.498,264.575 186.388 C 264.122 186.064,264.530 186.520,265.482 187.400 M244.200 188.800 C 247.116 188.979,249.400 189.360,250.972 189.930 C 252.276 190.403,253.405 190.728,253.481 190.653 C 253.651 190.483,250.750 189.399,248.600 188.829 C 247.720 188.595,245.380 188.433,243.400 188.467 L 239.800 188.530 244.200 188.800 M194.184 189.300 C 194.079 189.575,194.039 202.040,194.096 217.000 L 194.200 244.200 198.995 244.200 C 203.495 244.200,203.794 244.151,203.872 243.400 C 203.938 242.754,203.914 242.737,203.745 243.313 C 203.558 243.951,203.066 244.014,199.068 243.913 L 194.600 243.800 194.497 216.476 L 194.394 189.153 199.160 189.276 C 201.781 189.344,203.842 189.265,203.739 189.100 C 203.401 188.556,194.396 188.744,194.184 189.300 M235.275 189.873 C 234.326 190.209,233.621 190.554,233.707 190.640 C 233.793 190.727,234.840 190.451,236.032 190.028 C 237.224 189.605,237.930 189.260,237.600 189.261 C 237.270 189.262,236.224 189.538,235.275 189.873 M254.800 191.330 C 254.800 191.402,255.745 192.153,256.900 192.999 C 259.033 194.562,261.103 196.820,263.239 199.912 L 264.422 201.624 269.506 201.512 C 273.716 201.419,274.611 201.294,274.709 200.781 C 274.847 200.058,273.651 197.016,273.347 197.320 C 273.234 197.433,273.437 198.099,273.799 198.799 C 274.941 201.006,274.577 201.200,269.286 201.200 L 264.546 201.200 262.573 198.312 C 260.499 195.275,254.800 190.157,254.800 191.330 M229.800 193.035 L 228.600 194.066 229.900 193.206 C 230.615 192.733,231.200 192.268,231.200 192.173 C 231.200 191.873,231.031 191.978,229.800 193.035 M270.757 193.500 C 271.384 194.640,273.200 196.981,273.200 196.650 C 273.200 196.265,270.830 192.800,270.567 192.800 C 270.460 192.800,270.545 193.115,270.757 193.500 M227.328 194.902 C 225.913 196.473,225.841 197.050,227.226 195.713 C 227.959 195.005,228.464 194.331,228.348 194.214 C 228.232 194.098,227.773 194.407,227.328 194.902 M99.328 197.600 C 99.328 199.030,99.401 199.615,99.489 198.900 C 99.578 198.185,99.578 197.015,99.489 196.300 C 99.401 195.585,99.328 196.170,99.328 197.600 M213.185 198.030 C 212.727 198.926,212.413 199.839,212.486 200.057 C 212.559 200.276,213.004 199.542,213.475 198.427 C 214.504 195.991,214.340 195.766,213.185 198.030 M224.127 198.900 C 222.875 200.865,221.407 204.376,220.993 206.400 C 220.538 208.624,221.194 207.516,221.859 204.939 C 222.432 202.715,223.357 200.740,224.966 198.300 C 225.365 197.695,225.584 197.200,225.451 197.200 C 225.318 197.200,224.723 197.965,224.127 198.900 M98.893 202.000 C 98.893 202.770,98.975 203.085,99.076 202.700 C 99.176 202.315,99.176 201.685,99.076 201.300 C 98.975 200.915,98.893 201.230,98.893 202.000 M210.851 204.962 C 210.603 205.948,210.416 207.350,210.436 208.077 C 210.458 208.880,210.685 208.224,211.013 206.410 C 211.622 203.043,211.534 202.251,210.851 204.962 M98.240 206.240 C 98.090 207.703,98.049 208.982,98.148 209.082 C 98.248 209.181,98.457 208.071,98.613 206.613 C 98.769 205.156,98.811 203.877,98.705 203.772 C 98.599 203.666,98.390 204.777,98.240 206.240 M89.257 208.257 C 89.006 209.509,88.874 210.608,88.965 210.698 C 89.056 210.789,89.342 209.845,89.600 208.600 C 89.858 207.355,89.990 206.257,89.892 206.159 C 89.794 206.061,89.509 207.005,89.257 208.257 M244.667 208.667 C 244.520 208.813,244.400 210.877,244.400 213.253 C 244.400 218.771,243.594 218.400,255.574 218.400 C 261.850 218.400,265.200 218.542,265.200 218.808 C 265.200 223.059,257.937 231.213,252.330 233.258 C 251.038 233.729,250.051 234.185,250.138 234.271 C 250.527 234.661,255.000 232.588,257.091 231.048 C 261.411 227.868,265.182 222.420,265.337 219.136 L 265.400 217.800 255.087 217.693 L 244.773 217.586 244.887 213.293 L 245.000 209.000 260.600 209.000 L 276.200 209.000 276.184 214.200 C 276.176 217.060,276.290 218.860,276.437 218.200 C 276.920 216.038,276.837 209.397,276.320 208.880 C 275.798 208.358,245.182 208.152,244.667 208.667 M97.400 210.800 C 97.248 211.491,97.207 212.141,97.309 212.242 C 97.411 212.344,97.609 211.853,97.750 211.150 C 98.083 209.483,97.760 209.160,97.400 210.800 M210.120 211.600 C 210.120 212.810,210.195 213.305,210.287 212.700 C 210.378 212.095,210.378 211.105,210.287 210.500 C 210.195 209.895,210.120 210.390,210.120 211.600 M220.524 211.800 C 220.526 213.120,220.601 213.612,220.690 212.893 C 220.779 212.174,220.777 211.094,220.686 210.493 C 220.595 209.892,220.522 210.480,220.524 211.800 M87.515 214.290 C 85.939 218.569,85.912 218.664,86.613 217.451 C 87.376 216.130,88.873 211.939,88.658 211.724 C 88.578 211.645,88.064 212.800,87.515 214.290 M96.800 213.582 C 96.800 214.707,93.842 222.837,92.535 225.305 C 87.514 234.784,81.055 240.191,71.905 242.573 C 69.867 243.104,68.481 243.552,68.825 243.569 C 74.700 243.860,85.035 237.358,89.884 230.320 C 93.573 224.967,98.551 212.800,97.052 212.800 C 96.914 212.800,96.800 213.152,96.800 213.582 M128.814 213.900 C 122.331 213.962,116.895 214.145,116.733 214.306 C 116.572 214.468,121.920 214.550,128.620 214.489 C 136.160 214.420,140.800 214.229,140.800 213.989 C 140.800 213.775,140.755 213.642,140.700 213.694 C 140.645 213.745,135.296 213.838,128.814 213.900 M210.440 215.633 C 210.462 216.605,210.631 217.850,210.816 218.400 C 211.026 219.027,211.066 218.430,210.923 216.800 C 210.655 213.756,210.383 213.098,210.440 215.633 M116.089 224.267 C 116.040 229.364,116.109 233.819,116.243 234.167 C 116.457 234.725,117.940 234.800,128.800 234.800 C 139.660 234.800,141.143 234.875,141.357 235.433 C 141.670 236.247,141.663 241.924,141.348 243.100 L 141.107 244.000 123.987 244.000 C 112.694 244.000,106.797 243.860,106.663 243.590 C 106.551 243.365,106.506 243.410,106.563 243.690 C 106.645 244.092,110.308 244.222,123.833 244.305 C 143.860 244.428,142.000 244.930,142.000 239.400 C 142.000 233.990,143.121 234.423,128.800 234.303 L 116.600 234.200 116.389 224.600 L 116.178 215.000 116.089 224.267 M221.002 217.200 C 222.165 222.716,225.410 227.597,230.172 230.995 C 232.391 232.578,236.695 234.639,237.047 234.286 C 237.126 234.208,236.157 233.721,234.895 233.205 C 228.668 230.659,223.431 224.796,221.803 218.546 C 221.146 216.026,220.539 215.005,221.002 217.200 M84.952 220.100 C 83.730 222.477,80.897 225.828,78.635 227.573 C 76.556 229.177,76.127 229.600,76.579 229.600 C 77.166 229.600,81.837 225.246,83.134 223.489 C 84.719 221.343,86.176 218.800,85.821 218.800 C 85.711 218.800,85.320 219.385,84.952 220.100 M211.449 220.800 C 211.724 222.387,212.389 223.852,212.357 222.800 C 212.347 222.470,212.084 221.570,211.773 220.800 L 211.207 219.400 211.449 220.800 M275.621 220.200 C 275.597 220.640,275.043 222.255,274.389 223.788 C 273.073 226.874,273.055 226.937,273.542 226.636 C 274.082 226.302,276.096 220.478,275.868 219.910 C 275.753 219.623,275.645 219.750,275.621 220.200 M212.400 224.031 C 212.400 225.115,215.827 230.823,217.686 232.833 C 219.832 235.155,219.552 234.548,217.109 231.580 C 216.285 230.580,214.888 228.365,214.005 226.659 C 213.122 224.953,212.400 223.770,212.400 224.031 M271.218 229.772 C 269.277 232.752,264.491 237.459,261.586 239.247 C 259.449 240.562,258.901 241.183,260.700 240.251 C 264.590 238.236,274.076 228.343,273.077 227.343 C 272.985 227.251,272.149 228.344,271.218 229.772 M74.611 230.082 C 74.177 230.334,72.647 230.971,71.211 231.498 C 69.775 232.024,69.169 232.361,69.865 232.245 C 71.168 232.028,76.516 229.686,75.800 229.647 C 75.580 229.634,75.045 229.830,74.611 230.082 M238.200 234.781 C 238.968 235.129,241.110 235.356,240.767 235.053 C 240.675 234.972,239.880 234.796,239.000 234.662 C 237.885 234.493,237.642 234.529,238.200 234.781 M247.200 234.800 L 246.200 235.120 247.200 235.132 C 247.750 235.138,248.560 234.989,249.000 234.800 L 249.800 234.456 249.000 234.468 C 248.560 234.474,247.750 234.624,247.200 234.800 M220.596 235.961 C 221.033 236.463,221.730 237.055,222.144 237.277 C 223.317 237.905,222.589 236.985,221.088 235.943 L 219.800 235.049 220.596 235.961 M223.200 237.883 C 223.200 238.009,223.515 238.361,223.900 238.665 C 224.632 239.243,227.948 241.055,227.600 240.687 C 227.113 240.171,223.200 237.677,223.200 237.883 M228.255 241.215 C 228.865 241.825,234.902 244.058,234.392 243.485 C 234.278 243.357,232.760 242.703,231.019 242.033 C 229.278 241.362,228.034 240.994,228.255 241.215 M258.180 241.138 C 257.971 241.324,256.669 241.888,255.287 242.391 C 253.905 242.895,252.842 243.375,252.926 243.459 C 253.132 243.665,258.505 241.635,258.980 241.171 C 259.466 240.697,258.711 240.666,258.180 241.138 M235.800 244.117 C 236.882 244.770,249.802 244.755,251.200 244.099 C 252.064 243.693,251.956 243.668,250.400 243.915 C 248.079 244.283,238.677 244.284,236.600 243.917 C 235.248 243.679,235.124 243.709,235.800 244.117 M284.997 258.864 C 284.873 259.186,284.824 261.508,284.886 264.024 L 285.000 268.600 287.600 268.900 C 295.688 269.834,296.504 270.011,299.729 271.530 C 317.703 280.002,314.673 311.692,295.508 315.678 C 293.781 316.038,289.388 316.200,281.400 316.200 L 269.800 316.200 269.600 296.000 L 269.400 275.800 267.434 275.870 C 264.841 275.963,262.594 277.526,261.222 280.193 L 260.200 282.178 260.200 304.389 L 260.200 326.600 278.200 326.593 C 297.966 326.586,298.373 326.545,303.698 324.041 C 311.629 320.311,318.396 311.058,319.961 301.800 C 320.184 300.480,320.553 298.320,320.781 297.000 C 321.849 290.817,320.730 282.010,318.173 276.464 C 313.074 265.408,303.507 259.387,289.711 258.551 C 285.965 258.324,285.184 258.376,284.997 258.864 M297.387 260.187 C 315.675 264.826,324.325 281.759,319.155 302.800 C 315.840 316.293,307.188 324.398,294.410 325.980 C 290.439 326.472,261.641 326.541,260.884 326.060 C 259.831 325.392,260.394 282.585,261.482 280.550 C 262.612 278.438,264.405 276.937,266.460 276.384 C 269.379 275.598,269.181 274.196,269.296 296.486 L 269.400 316.600 281.000 316.712 C 296.813 316.865,299.944 316.130,304.987 311.087 C 312.359 303.715,314.354 289.899,309.472 280.029 C 306.118 273.250,298.869 269.149,289.013 268.455 L 285.400 268.200 285.287 263.438 L 285.174 258.677 289.299 258.929 C 291.569 259.068,295.208 259.634,297.387 260.187 M320.103 262.264 C 319.383 262.555,319.823 263.283,331.000 280.284 C 333.200 283.630,336.800 289.120,339.000 292.484 L 343.000 298.600 343.115 312.057 L 343.230 325.515 344.115 325.752 C 345.267 326.061,349.943 326.058,351.100 325.748 L 352.000 325.507 352.000 312.220 L 352.000 298.934 354.525 295.167 C 355.914 293.095,359.729 287.440,363.005 282.600 C 378.439 259.790,377.559 262.000,371.213 262.000 C 365.971 262.000,366.701 261.460,362.000 268.819 C 360.130 271.747,357.520 275.822,356.200 277.874 C 354.880 279.927,352.540 283.673,351.000 286.198 C 347.681 291.639,348.201 291.483,346.053 287.687 C 343.311 282.840,330.752 263.056,330.065 262.500 C 329.456 262.007,321.223 261.812,320.103 262.264 M133.456 263.287 C 133.021 264.908,133.165 323.856,133.606 325.016 L 134.012 326.084 149.506 325.886 C 166.898 325.664,167.125 325.634,173.051 322.746 C 185.022 316.911,183.954 297.184,171.400 292.236 C 170.613 291.926,170.612 291.913,171.374 291.460 C 181.594 285.379,180.437 269.757,169.381 264.558 C 165.657 262.807,162.359 262.351,154.400 262.487 L 147.800 262.600 147.684 266.140 C 147.526 270.947,147.103 270.697,155.718 270.871 C 165.716 271.072,168.046 272.226,169.157 277.524 C 170.326 283.104,167.948 286.785,162.206 288.279 L 160.200 288.800 162.154 288.600 C 172.370 287.555,172.805 272.488,162.674 270.588 C 161.856 270.434,158.264 270.194,154.693 270.054 L 148.200 269.800 148.082 266.863 C 147.907 262.520,147.648 262.649,155.994 262.909 C 163.811 263.154,166.379 263.587,169.607 265.209 C 179.708 270.283,180.811 284.785,171.542 290.637 C 169.595 291.866,169.611 292.110,171.700 293.015 C 184.082 298.379,184.095 317.471,171.720 322.845 C 166.874 324.949,167.171 324.918,150.098 325.096 L 133.995 325.263 134.098 294.132 L 134.200 263.000 138.000 263.000 L 141.800 263.000 141.903 290.528 L 142.006 318.056 153.303 317.928 C 168.087 317.761,170.975 316.518,172.411 309.711 C 174.287 300.820,169.385 296.908,155.800 296.454 L 148.200 296.200 148.200 292.800 L 148.200 289.400 154.000 289.178 L 159.800 288.955 153.800 288.978 L 147.800 289.000 147.800 292.800 L 147.800 296.600 155.600 296.862 C 167.882 297.274,171.405 299.334,171.905 306.397 C 172.534 315.286,168.940 317.400,153.200 317.400 L 142.600 317.400 142.400 290.000 L 142.200 262.600 137.950 262.487 C 133.819 262.377,133.693 262.399,133.456 263.287 M212.000 262.927 C 187.165 268.643,177.416 298.783,194.408 317.314 C 202.535 326.177,215.514 330.020,227.259 327.040 C 239.686 323.887,249.260 314.149,251.823 302.055 C 252.923 296.869,252.329 288.033,250.628 284.250 C 250.319 283.562,249.704 282.151,249.261 281.113 C 243.686 268.037,226.419 259.609,212.000 262.927 M329.402 262.706 C 330.364 263.409,340.929 279.801,345.640 287.901 C 347.967 291.901,348.204 292.033,349.356 289.968 C 350.126 288.589,359.073 274.374,363.785 267.046 C 365.183 264.872,366.568 262.940,366.863 262.752 C 367.557 262.313,375.088 262.295,375.358 262.733 C 375.560 263.059,373.494 266.196,358.985 287.600 L 351.800 298.200 351.600 311.600 L 351.400 325.000 347.600 325.000 L 343.800 325.000 343.600 311.600 L 343.400 298.200 331.908 280.648 C 325.588 270.995,320.513 262.940,320.632 262.748 C 320.892 262.328,328.832 262.289,329.402 262.706 M225.610 263.365 C 249.197 267.574,259.946 296.535,244.868 315.254 C 228.502 335.575,195.749 329.679,187.902 305.000 C 180.442 281.539,200.896 258.955,225.610 263.365 M215.660 271.649 C 194.678 274.764,188.528 303.230,206.311 314.921 C 208.778 316.543,209.943 317.061,214.028 318.349 C 220.319 320.334,230.723 317.273,235.859 311.927 C 251.488 295.661,237.798 268.362,215.660 271.649 M223.967 272.447 C 231.041 273.646,237.753 279.461,240.672 286.919 C 241.919 290.105,242.351 299.508,241.348 301.639 C 241.099 302.168,240.569 303.410,240.170 304.400 C 232.175 324.221,202.969 322.321,197.229 301.607 C 192.517 284.605,206.398 269.467,223.967 272.447 M350.098 344.266 C 349.264 344.602,349.969 345.200,351.200 345.200 C 352.511 345.200,353.111 344.605,352.165 344.242 C 351.447 343.966,350.823 343.973,350.098 344.266 " stroke="none" fill="#cae3e3" fill-rule="evenodd"></path></g></svg>